HIERARCHY
ROOT root
{
  OFFSET 24.3999 93.6577 -85.9999
  CHANNELS 6 Xposition Yposition Zposition Zrotation Xrotation Yrotation
  JOINT lhipjoint
  {
    OFFSET 0 0 0
    CHANNELS 6 Xposition Yposition Zposition Zrotation Xrotation Yrotation
    JOINT lfemur
    {
      OFFSET 18.5758 -19.2903 9.54656
      CHANNELS 6 Xposition Yposition Zposition Zrotation Xrotation Yrotation
      JOINT ltibia
      {
        OFFSET -1.9631e-005 -74.2526 0
        CHANNELS 6 Xposition Yposition Zposition Zrotation Xrotation Yrotation
        JOINT lfoot
        {
          OFFSET -2.37159e-005 -89.7035 0
          CHANNELS 6 Xposition Yposition Zposition Zrotation Xrotation Yrotation
          JOINT ltoes
          {
            OFFSET 0 -25.3703 -6.19462
            CHANNELS 6 Xposition Yposition Zposition Zrotation Xrotation Yrotation
            End Site
            {
              OFFSET 0 -13.0878 0
            }
          }
        }
      }
    }
  }
  JOINT rhipjoint
  {
    OFFSET 0 0 0
    CHANNELS 6 Xposition Yposition Zposition Zrotation Xrotation Yrotation
    JOINT rfemur
    {
      OFFSET -17.9301 -19.2903 9.54658
      CHANNELS 6 Xposition Yposition Zposition Zrotation Xrotation Yrotation
      JOINT rtibia
      {
        OFFSET 1.96347e-005 -74.2668 0
        CHANNELS 6 Xposition Yposition Zposition Zrotation Xrotation Yrotation
        JOINT rfoot
        {
          OFFSET 2.38079e-005 -90.0515 0
          CHANNELS 6 Xposition Yposition Zposition Zrotation Xrotation Yrotation
          JOINT rtoes
          {
            OFFSET 0 -23.7792 -7.11007
            CHANNELS 6 Xposition Yposition Zposition Zrotation Xrotation Yrotation
            End Site
            {
              OFFSET 0 -12.3995 0
            }
          }
        }
      }
    }
  }
  JOINT lowerback
  {
    OFFSET 0 0 0
    CHANNELS 6 Xposition Yposition Zposition Zrotation Xrotation Yrotation
    JOINT upperback
    {
      OFFSET 0.354683 23.7627 -1.24606
      CHANNELS 6 Xposition Yposition Zposition Zrotation Xrotation Yrotation
      JOINT thorax
      {
        OFFSET -0.210265 23.8079 -0.785224
        CHANNELS 6 Xposition Yposition Zposition Zrotation Xrotation Yrotation
        JOINT lowerneck
        {
          OFFSET -0.394489 23.8198 -0.204488
          CHANNELS 6 Xposition Yposition Zposition Zrotation Xrotation Yrotation
          JOINT upperneck
          {
            OFFSET -0.255974 19.5566 0.0509207
            CHANNELS 6 Xposition Yposition Zposition Zrotation Xrotation Yrotation
            JOINT head
            {
              OFFSET -0.655709 17.4667 -6.97072
              CHANNELS 6 Xposition Yposition Zposition Zrotation Xrotation Yrotation
              End Site
              {
                OFFSET -0.157538 19.3569 -2.3799
              }
            }
          }
        }
        JOINT lclavicle
        {
          OFFSET -0.394489 23.8198 -0.204488
          CHANNELS 6 Xposition Yposition Zposition Zrotation Xrotation Yrotation
          JOINT lhumerus
          {
            OFFSET 38.9352 5.67807 2.47458
            CHANNELS 6 Xposition Yposition Zposition Zrotation Xrotation Yrotation
            JOINT lradius
            {
              OFFSET 0 -61.1764 0
              CHANNELS 6 Xposition Yposition Zposition Zrotation Xrotation Yrotation
              JOINT lwrist
              {
                OFFSET 0 -27.587 0
                CHANNELS 6 Xposition Yposition Zposition Zrotation Xrotation Yrotation
                JOINT lhand
                {
                  OFFSET 0 -13.7934 0
                  CHANNELS 6 Xposition Yposition Zposition Zrotation Xrotation Yrotation
                  JOINT lfingers
                  {
                    OFFSET 0 -8.21269 0
                    CHANNELS 6 Xposition Yposition Zposition Zrotation Xrotation Yrotation
                    End Site
                    {
                      OFFSET 0 -6.62128 0
                    }
                  }
                }
                JOINT lthumb
                {
                  OFFSET 0 -13.7934 0
                  CHANNELS 6 Xposition Yposition Zposition Zrotation Xrotation Yrotation
                  End Site
                  {
                    OFFSET 0 -9.50688 0
                  }
                }
              }
            }
          }
        }
        JOINT rclavicle
        {
          OFFSET -0.394489 23.8198 -0.204488
          CHANNELS 6 Xposition Yposition Zposition Zrotation Xrotation Yrotation
          JOINT rhumerus
          {
            OFFSET -36.4648 6.30259 3.50533
            CHANNELS 6 Xposition Yposition Zposition Zrotation Xrotation Yrotation
            JOINT rradius
            {
              OFFSET -0.0017767 -63.1022 -0.000763308
              CHANNELS 6 Xposition Yposition Zposition Zrotation Xrotation Yrotation
              JOINT rwrist
              {
                OFFSET 0 -28.0032 0
                CHANNELS 6 Xposition Yposition Zposition Zrotation Xrotation Yrotation
                JOINT rhand
                {
                  OFFSET 0 -14.0016 0
                  CHANNELS 6 Xposition Yposition Zposition Zrotation Xrotation Yrotation
                  JOINT rfingers
                  {
                    OFFSET 0 -9.21183 0
                    CHANNELS 6 Xposition Yposition Zposition Zrotation Xrotation Yrotation
                    End Site
                    {
                      OFFSET 0 -7.42681 0
                    }
                  }
                }
                JOINT rthumb
                {
                  OFFSET 0 -14.0016 0
                  CHANNELS 6 Xposition Yposition Zposition Zrotation Xrotation Yrotation
                  End Site
                  {
                    OFFSET 0 -10.6635 0
                  }
                }
              }
            }
          }
        }
      }
    }
  }
}
MOTION
Frames:	4
Frame Time:	0.00833333
27.1638 92.2997 -98.819 -3.64629 30.2484 -1.54359 0 0 0 3.97569e-016 0 -5.96354e-016 18.5758 -19.2903 9.54656 -1.17602 -37.7617 30.5724 -1.9631e-005 -74.2526 7.10543e-015 -1.59028e-015 56.7987 -0 -2.37159e-005 -89.7035 7.10543e-015 25.2155 -49.4913 31.7719 -1.11333e-006 -25.3703 -6.19462 3.97569e-016 5.83144 -0 0 0 0 3.97569e-016 0 -5.96354e-016 -17.9301 -19.2903 9.54658 15.2451 -56.654 -3.81252 1.96347e-005 -74.2668 7.10543e-015 -8.98923e-017 35.8194 -3.92242e-015 2.38079e-005 -90.0515 1.42109e-014 -127.342 -65.4015 -124.749 7.27281e-007 -23.7792 -7.11007 -3.10064e-015 5.73915 -7.99144e-016 0 0 0 1.60469 11.1028 -0.160388 0.354683 23.7627 -1.24606 12.3034 -8.36872 1.79135 -0.210265 23.8079 -0.785224 13.441 -16.4076 1.79039 -0.394489 23.8198 -0.204488 2.59166 -13.5505 2.98107 -0.255974 19.5566 0.0509207 -4.86479 1.66908 3.82223 -0.655709 17.4667 -6.97072 -1.73667 3.09197 1.71836 -0.394489 23.8198 -0.204488 9.93923e-015 -1.59028e-015 -2.54444e-014 38.9352 5.67807 2.47458 -21.9585 -68.8375 150.004 2.37858e-009 -61.1764 1.37329e-009 -3.61316e-015 15.2181 1.64807e-015 1.07271e-009 -27.587 6.19337e-010 4.86156e-015 6.67754e-015 -162.113 0 -13.7934 -6.19323e-010 27.7739 9.17324 -1.61088e-015 0 -8.21269 -3.68658e-010 -1.83876e-015 7.12502 2.00332e-015 0 -13.7934 -6.19323e-010 -1.48953e-014 34.3419 3.85202e-015 -0.394489 23.8198 -0.204488 9.93923e-015 -1.59028e-015 -2.54444e-014 -36.4648 6.30259 3.50533 -85.4295 -72.122 84.0495 -0.0017767 -63.1022 -0.000763308 -7.61001e-015 11.1078 6.48255e-015 -1.08881e-009 -28.0032 6.28603e-010 -1.30934e-014 -3.50835e-015 120 -1.42109e-014 -14.0016 -6.28631e-010 20.9801 -8.00823 2.00742e-016 0 -9.21183 -4.135e-010 4.96962e-016 7.12502 2.40398e-015 -1.42109e-014 -14.0016 -6.28631e-010 36.7666 17.9025 -5.01358e-015 
27.0693 92.1794 -98.8156 -3.76543 30.1346 -1.58033 0 0 0 6.95746e-016 0 3.97569e-016 18.5758 -19.2903 9.54656 -1.18343 -38.0862 30.51 -1.9631e-005 -74.2526 -1.42109e-014 9.18971e-015 57.4998 -1.1839e-014 -2.37159e-005 -89.7035 0 28.8832 -53.0012 34.6339 -1.11333e-006 -25.3703 -6.19462 7.61463e-016 11.2046 3.24235e-015 0 0 0 6.95746e-016 0 3.97569e-016 -17.9301 -19.2903 9.54658 15.7916 -56.6163 -2.81108 1.96347e-005 -74.2668 0 -3.67597e-016 36.1725 1.97001e-015 2.38079e-005 -90.0515 0 -128.165 -65.1592 -125.497 7.27281e-007 -23.7792 -7.11007 -6.23497e-015 6.03699 -1.19936e-015 0 0 0 1.48728 10.9809 -0.24222 0.354683 23.7627 -1.24606 12.2444 -8.41073 1.63853 -0.210265 23.8079 -0.785224 13.4867 -16.3465 1.72522 -0.394489 23.8198 -0.204488 2.6219 -12.3828 2.9666 -0.255974 19.5566 0.0509207 -4.71411 1.34533 3.79914 -0.655709 17.4667 -6.97072 -1.70973 2.75684 1.73194 -0.394489 23.8198 -0.204488 1.86858e-014 3.18055e-015 -2.70347e-014 38.9352 5.67807 2.47458 -34.1257 -66.468 132.757 2.37861e-009 -61.1764 1.37329e-009 -8.61728e-015 16.2057 -3.31216e-015 1.07271e-009 -27.587 6.19309e-010 1.82421e-014 2.91812e-014 -154.021 3.55271e-015 -13.7934 -6.19295e-010 29.1868 8.17983 -5.52276e-015 7.10543e-015 -8.21269 -3.68658e-010 7.45442e-016 7.12502 4.00663e-016 3.55271e-015 -13.7934 -6.19295e-010 -9.54166e-015 33.398 -0 -0.394489 23.8198 -0.204488 1.86858e-014 3.18055e-015 -2.70347e-014 -36.4648 6.30259 3.50533 -83.8578 -66.7623 82.4082 -0.0017767 -63.1022 -0.000763308 2.62033e-015 9.98957 3.22952e-015 -1.08882e-009 -28.0032 6.28603e-010 1.76866e-014 2.89528e-014 120 0 -14.0016 -6.28631e-010 20.8494 -8.70121 -4.27336e-016 0 -9.21183 -4.13507e-010 1.553e-016 7.12502 1.15191e-015 0 -14.0016 -6.28631e-010 36.5778 17.2354 -4.99514e-015 
26.961 92.0389 -98.7913 -3.68802 29.9926 -1.79388 0 0 0 9.93923e-017 0 -3.97569e-016 18.5758 -19.2903 9.54656 -1.13603 -38.4309 30.549 -1.9631e-005 -74.2526 0 -3.56215e-015 58.3133 6.05503e-015 -2.37159e-005 -89.7035 0 33.5187 -56.6105 38.4246 -1.11333e-006 -25.3703 -6.19462 -3.2657e-015 16.4168 6.63147e-015 0 0 0 9.93923e-017 0 -3.97569e-016 -17.9301 -19.2903 9.54658 16.4388 -56.5435 -1.66505 1.96347e-005 -74.2668 0 4.1119e-016 36.5545 1.9797e-015 2.38079e-005 -90.0515 1.42109e-014 -128.918 -64.9297 -126.18 7.27281e-007 -23.7792 -7.11007 -3.22408e-015 6.24778 3.99945e-016 0 0 0 1.19087 10.8727 -0.308652 0.354683 23.7627 -1.24606 12.1143 -8.37922 1.45698 -0.210265 23.8079 -0.785224 13.5473 -16.194 1.6522 -0.394489 23.8198 -0.204488 2.84655 -11.8211 2.97099 -0.255974 19.5566 0.0509207 -4.64317 1.48603 3.78494 -0.655709 17.4667 -6.97072 -1.73226 2.70389 1.73594 -0.394489 23.8198 -0.204488 1.55052e-014 1.59028e-015 -2.38542e-014 38.9352 5.67807 2.47458 -42.9472 -62.5797 119.022 2.3786e-009 -61.1764 1.37327e-009 4.16856e-015 17.2568 -3.33048e-015 1.07271e-009 -27.587 6.19309e-010 -1.12409e-014 2.684e-014 -145.775 1.77636e-015 -13.7934 -6.19309e-010 30.6755 7.2176 -2.00372e-015 0 -8.21269 -3.68644e-010 4.72114e-016 7.12502 1.00166e-015 1.77636e-015 -13.7934 -6.19309e-010 -1.05541e-014 32.4827 1.88521e-015 -0.394489 23.8198 -0.204488 1.55052e-014 1.59028e-015 -2.38542e-014 -36.4648 6.30259 3.50533 -81.5233 -60.5023 80.982 -0.0017767 -63.1022 -0.000763308 6.23959e-015 8.68947 8.04372e-016 -1.08881e-009 -28.0032 6.28603e-010 2.63845e-014 -3.50835e-015 120 -1.42109e-014 -14.0016 -6.28631e-010 20.2862 -9.13725 -6.04019e-015 0 -9.21183 -4.13507e-010 -1.2424e-015 7.12502 4.00663e-016 -1.42109e-014 -14.0016 -6.28631e-010 35.9888 16.8148 -1.07985e-014 
26.8389 91.8656 -98.7044 -3.48147 29.7229 -2.09707 0 0 0 -7.95139e-016 0 5.96354e-016 18.5758 -19.2903 9.54656 -1.04814 -38.7318 30.6755 -1.9631e-005 -74.2526 0 5.56597e-015 59.186 -0 -2.37159e-005 -89.7035 7.10543e-015 38.0894 -59.459 42.3039 -1.11333e-006 -25.3703 -6.19462 -6.61836e-015 20 1.35387e-014 0 0 0 -7.95139e-016 0 5.96354e-016 -17.9301 -19.2903 9.54658 16.9978 -56.4681 -0.750914 1.96347e-005 -74.2668 1.42109e-014 -3.1933e-015 37.0166 3.98336e-015 2.38079e-005 -90.0515 -1.42109e-014 -129.585 -64.7201 -126.783 7.27281e-007 -23.7792 -7.11007 6.27324e-015 6.30608 7.99979e-016 0 0 0 0.722354 10.84 -0.162239 0.354683 23.7627 -1.24606 11.9119 -8.2284 1.52849 -0.210265 23.8079 -0.785224 13.5127 -15.996 1.70144 -0.394489 23.8198 -0.204488 3.20031 -12.2322 2.84905 -0.255974 19.5566 0.0509207 -4.6048 2.06925 3.57903 -0.655709 17.4667 -6.97072 -1.78919 2.98199 1.62964 -0.394489 23.8198 -0.204488 1.15295e-014 -4.77083e-015 -2.06736e-014 38.9352 5.67807 2.47458 -47.1518 -58.7001 110.98 2.37859e-009 -61.1764 1.37327e-009 -7.92711e-015 18.1721 5.02127e-015 1.07271e-009 -27.587 6.19309e-010 -5.54011e-014 1.0149e-013 -139.117 -7.10543e-015 -13.7934 -6.19309e-010 31.9604 6.30317 -5.59982e-015 0 -8.21269 -3.68658e-010 3.97569e-016 7.12502 -0 -7.10543e-015 -13.7934 -6.19309e-010 -1.46798e-014 31.6122 3.73473e-015 -0.394489 23.8198 -0.204488 1.15295e-014 -4.77083e-015 -2.06736e-014 -36.4648 6.30259 3.50533 -79.506 -54.9829 79.506 -0.0017767 -63.1022 -0.000763308 1.05422e-016 7.55242 -8.02097e-016 -1.08882e-009 -28.0032 6.28603e-010 -4.34897e-015 1.62306e-014 120 0 -14.0016 -6.28631e-010 19.3571 -9.51604 2.4187e-015 0 -9.21183 -4.13507e-010 -8.94531e-016 7.12502 8.01327e-016 0 -14.0016 -6.28631e-010 35.0345 16.4496 -8.29073e-016 
